<?xml version="1.0" encoding="UTF-8"?><svg id="Strategist_mouth" xmlns="http://www.w3.org/2000/svg" viewBox="0 0 2425.37 1072.88"><defs><style>.cls-1{fill:#94cdff;}.cls-2{fill:#93ccff;}</style></defs><path class="cls-1" d="M1324.17,771.02v-114.79h14.45v114.79h-14.45Z"/><path class="cls-1" d="M1381.64,771.02l42.22-114.79h16.22l42.38,114.79h-15.73l-12.2-35h-45.76l-12.36,35h-14.77ZM1426.59,685.77l-13.65,38.53h37.57l-13.17-38.53-5.14-16.21h-.32c-2.04,6.42-3.8,11.83-5.3,16.21Z"/><path class="cls-1" d="M1497.23,771.02v-114.79h18.46l37.25,95.36h.32l36.93-95.36h18.78v114.79h-13.81v-94.4h-.32c-2.04,6-3.75,10.82-5.14,14.45l-31.47,79.95h-11.08l-31.47-79.95-5.14-14.45h-.32v94.4h-13Z"/><path class="cls-1" d="M1323.84,928.42v-114.79h53.62c10.06,0,18.22,2.89,24.48,8.67,6.26,5.78,9.39,13.38,9.39,22.8,0,14.66-6.64,24.14-19.91,28.42v.48c5.67,2.04,9.71,5.22,12.12,9.55,2.41,4.34,3.88,10.89,4.42,19.66,1.07,14.67,2.83,22.86,5.3,24.56v.64h-15.57c-1.18-.96-2.01-2.99-2.49-6.1-.48-3.1-1.04-9.63-1.69-19.59-.54-8.35-2.6-14.23-6.18-17.66-3.59-3.42-9.29-5.14-17.1-5.14h-31.95v48.49h-14.45ZM1338.29,826.15v42.06h34.04c7.92,0,13.91-1.84,17.98-5.54,4.07-3.69,6.1-8.85,6.1-15.49,0-7.17-1.82-12.47-5.46-15.9-3.64-3.42-9.58-5.14-17.82-5.14h-34.84Z"/><path class="cls-1" d="M1431.25,928.42v-114.79h81.07v12.68h-66.63v36.28h60.53v12.2h-60.53v40.3h68.55v13.33h-83Z"/><path class="cls-1" d="M1573.66,930.66c-15.41,0-27.27-3.8-35.56-11.4-8.3-7.6-12.76-17.5-13.4-29.7h14.13c1.93,19.69,13.75,29.54,35.48,29.54,8.24,0,14.85-1.85,19.83-5.54,4.98-3.69,7.47-9.02,7.47-15.98,0-3.1-.59-5.83-1.77-8.19-1.18-2.35-2.59-4.28-4.25-5.78-1.66-1.5-4.15-2.89-7.47-4.17-3.32-1.29-6.4-2.3-9.23-3.05-2.84-.75-6.72-1.66-11.64-2.73-5.89-1.29-10.76-2.59-14.61-3.93-3.85-1.34-7.71-3.19-11.56-5.54-3.85-2.35-6.72-5.38-8.59-9.07-1.87-3.69-2.81-8.16-2.81-13.4,0-9.42,3.56-16.83,10.68-22.24,7.12-5.4,16.56-8.11,28.34-8.11,25.79,0,40.3,11.94,43.51,35.8h-13.65c-1.07-8.13-4.12-14.26-9.15-18.38-5.03-4.12-11.83-6.18-20.39-6.18-7.92,0-14.21,1.61-18.86,4.82s-6.98,7.76-6.98,13.65c0,2.57.51,4.84,1.53,6.82s2.35,3.64,4.01,4.97c1.66,1.34,3.85,2.55,6.58,3.61,2.73,1.07,5.43,1.96,8.11,2.65,2.67.69,5.94,1.42,9.79,2.17,5.35,1.07,9.74,2.06,13.17,2.97,3.42.91,7.22,2.27,11.4,4.09,4.18,1.82,7.41,3.91,9.71,6.26,2.3,2.36,4.28,5.43,5.94,9.23,1.66,3.8,2.49,8.22,2.49,13.25,0,10.49-3.88,18.7-11.64,24.64-7.76,5.94-17.96,8.91-30.58,8.91Z"/><path class="cls-1" d="M1634.82,928.42v-114.79h81.07v12.68h-66.63v36.28h60.53v12.2h-60.53v40.3h68.55v13.33h-83Z"/><path class="cls-1" d="M1729.54,928.42l42.22-114.79h16.22l42.38,114.79h-15.73l-12.2-35h-45.76l-12.36,35h-14.77ZM1774.49,843.16l-13.65,38.53h37.57l-13.17-38.53-5.14-16.21h-.32c-2.04,6.42-3.8,11.83-5.3,16.21Z"/><path class="cls-1" d="M1845.13,928.42v-114.79h53.62c10.06,0,18.22,2.89,24.48,8.67,6.26,5.78,9.39,13.38,9.39,22.8,0,14.66-6.64,24.14-19.91,28.42v.48c5.67,2.04,9.71,5.22,12.12,9.55s3.88,10.89,4.42,19.66c1.07,14.67,2.83,22.86,5.3,24.56v.64h-15.57c-1.18-.96-2.01-2.99-2.49-6.1-.48-3.1-1.04-9.63-1.69-19.59-.54-8.35-2.6-14.23-6.18-17.66-3.59-3.42-9.29-5.14-17.1-5.14h-31.95v48.49h-14.45ZM1859.58,826.15v42.06h34.04c7.92,0,13.91-1.84,17.98-5.54,4.07-3.69,6.1-8.85,6.1-15.49,0-7.17-1.82-12.47-5.46-15.9-3.64-3.42-9.58-5.14-17.82-5.14h-34.84Z"/><path class="cls-1" d="M2001.99,930.66c-16.16,0-29.17-5.57-39.01-16.7-9.85-11.13-14.77-25.47-14.77-43.03s4.9-31.65,14.69-42.94c9.8-11.29,23.04-16.94,39.74-16.94,13.06,0,23.6,3.37,31.63,10.12,8.03,6.74,12.84,15.57,14.45,26.49h-14.13c-1.39-7.28-4.9-13.11-10.51-17.5-5.62-4.39-12.87-6.58-21.75-6.58-12.31,0-21.94,4.42-28.9,13.25-6.96,8.83-10.44,20.2-10.44,34.11s3.61,25.5,10.84,34.12c7.22,8.62,16.78,12.93,28.66,12.93,10.27,0,18.22-3,23.84-8.99,5.62-5.99,8.8-13.54,9.55-22.64h14.29c-.11,5.67-1.42,11.48-3.93,17.42-2.52,5.94-5.81,10.89-9.87,14.85-8.24,8.03-19.69,12.04-34.36,12.04Z"/><path class="cls-1" d="M2068.77,928.42v-114.79h14.45v48.8h61.33v-48.8h14.45v114.79h-14.45v-54.26h-61.33v54.26h-14.45Z"/><path class="cls-1" d="M2182.92,928.42v-114.79h81.07v12.68h-66.63v36.28h60.53v12.2h-60.53v40.3h68.55v13.33h-83Z"/><path class="cls-1" d="M2285.19,928.42v-114.79h53.62c10.06,0,18.22,2.89,24.48,8.67,6.26,5.78,9.39,13.38,9.39,22.8,0,14.66-6.64,24.14-19.91,28.42v.48c5.67,2.04,9.71,5.22,12.12,9.55s3.88,10.89,4.42,19.66c1.07,14.67,2.83,22.86,5.3,24.56v.64h-15.57c-1.18-.96-2.01-2.99-2.49-6.1-.48-3.1-1.04-9.63-1.69-19.59-.54-8.35-2.6-14.23-6.18-17.66-3.59-3.42-9.29-5.14-17.1-5.14h-31.95v48.49h-14.45ZM2299.64,826.15v42.06h34.04c7.92,0,13.91-1.84,17.98-5.54,4.07-3.69,6.1-8.85,6.1-15.49,0-7.17-1.82-12.47-5.46-15.9-3.64-3.42-9.58-5.14-17.82-5.14h-34.84Z"/><polygon class="cls-2" points="484.5 297.42 706.79 297.42 905.43 604.84 489.23 916.99 1113.53 916.99 484.5 297.42"/><path d="M875.23,815.47c-13.11,0-28.52-1.92-44.55-5.66-23.77-5.54-44.7-14.12-57.42-23.54-4.3-3.19-5.21-9.26-2.02-13.56,3.19-4.3,9.26-5.21,13.56-2.02,10.51,7.78,29.31,15.35,50.28,20.24,21.16,4.93,42.14,6.44,54.76,3.94,5.25-1.05,10.35,2.37,11.39,7.63,1.04,5.25-2.38,10.35-7.63,11.39-5.34,1.06-11.55,1.58-18.38,1.58Z"/><circle cx="759.45" cy="651.83" r="32.62"/><circle cx="928.44" cy="651.83" r="32.62"/><path d="M739.83,747.64c-51.76,0-93.86-42.11-93.86-93.86s42.11-93.86,93.86-93.86,93.86,42.11,93.86,93.86-42.11,93.86-93.86,93.86ZM739.83,566.97c-47.87,0-86.81,38.94-86.81,86.81s38.94,86.81,86.81,86.81,86.81-38.94,86.81-86.81-38.94-86.81-86.81-86.81Z"/><path d="M947.91,747.64c-51.76,0-93.86-42.11-93.86-93.86s42.11-93.86,93.86-93.86,93.86,42.11,93.86,93.86-42.11,93.86-93.86,93.86ZM947.91,566.97c-47.87,0-86.81,38.94-86.81,86.81s38.94,86.81,86.81,86.81,86.81-38.94,86.81-86.81-38.94-86.81-86.81-86.81Z"/><rect x="830.72" y="650.26" width="27.41" height="7.05"/><rect x="623.53" y="625.02" width="7.05" height="50.91" transform="translate(-196.41 1022.27) rotate(-70.35)"/><rect x="1011.42" y="614.93" width="7.05" height="50.91" transform="translate(70.54 1380.87) rotate(-70.35)"/><path class="cls-1" d="M1148.73,520.3c-12.62,0-24.52-4.84-33.57-13.68-9.19-8.97-14.34-20.99-14.49-33.83-.32-26.51,20.99-48.34,47.5-48.66.2,0,.39,0,.58,0,26.25,0,47.76,21.19,48.08,47.51.16,12.84-4.7,24.97-13.67,34.17-8.97,9.19-20.99,14.34-33.83,14.49-.2,0-.4,0-.6,0ZM1148.75,431.27c-.17,0-.33,0-.5,0-10.93.13-21.16,4.51-28.79,12.34-7.64,7.82-11.77,18.16-11.64,29.09.13,10.93,4.51,21.16,12.34,28.8,7.7,7.52,17.83,11.64,28.57,11.64.17,0,.34,0,.51,0,10.93-.13,21.16-4.51,28.8-12.34,7.64-7.82,11.77-18.16,11.64-29.09-.27-22.4-18.59-40.44-40.93-40.44Z"/><rect class="cls-1" x="1202.33" y="492.01" width="7.16" height="64.89" transform="translate(-11.73 1021.06) rotate(-45.69)"/><path class="cls-1" d="M203.3,766.37l-11.58-56.45,39.97-8.2,11.57,56.45-39.97,8.2ZM200.16,715.49l8.7,42.43,25.95-5.32-8.7-42.43-25.95,5.32Z"/><path class="cls-1" d="M236.51,759.55l-17.69-86.25,39.97-8.2,17.69,86.25-39.97,8.2ZM227.27,678.88l14.81,72.23,25.95-5.32-14.81-72.23-25.95,5.32Z"/><path class="cls-1" d="M269.73,752.74l-22.33-108.88,39.97-8.2,22.33,108.88-39.97,8.2ZM255.85,649.43l19.45,94.86,25.95-5.32-19.45-94.86-25.95,5.32Z"/><rect class="cls-1" x="359.59" y="237.77" width="7.16" height="105.21" transform="translate(4.91 586.79) rotate(-78.25)"/><circle class="cls-1" cx="288.65" cy="274.88" r="6.78"/><rect class="cls-1" x="353.81" y="265.58" width="7.16" height="105.21" transform="translate(-26.91 603.29) rotate(-78.25)"/><circle class="cls-1" cx="282.86" cy="302.69" r="6.78"/><rect class="cls-1" x="348.25" y="292.32" width="7.16" height="105.21" transform="translate(-57.52 619.14) rotate(-78.25)"/><circle class="cls-1" cx="277.3" cy="329.42" r="6.78"/><rect class="cls-1" x="217.14" y="915.11" width="995.98" height="6.93"/><rect class="cls-1" x="97.66" y="870.67" width="354.92" height="6.93"/><ellipse class="cls-1" cx="1205.5" cy="915.93" rx="16.16" ry="17.57"/><ellipse class="cls-1" cx="217.14" cy="918.57" rx="16.16" ry="17.57"/></svg>