<?xml version="1.0" encoding="UTF-8"?><svg id="Strategist_mouth" xmlns="http://www.w3.org/2000/svg" viewBox="0 0 1080 1080"><defs><style>.cls-1{fill:#93ccff;}</style></defs><polygon class="cls-1" points="7.52 17.08 715.2 17.08 1069.04 555.88 361.36 1062.51 715.2 1062.51 7.52 17.08"/><path d="M680.96,252.39c-6.51,0-12.68-3.88-15.28-10.29-12.58-31-39.51-54.04-72.04-61.62-33.34-7.78-68.26,1.5-93.4,24.82-6.67,6.19-17.1,5.8-23.29-.88-6.19-6.68-5.8-17.1.88-23.29,33.19-30.77,79.28-43.01,123.31-32.75,42.95,10.01,78.51,40.42,95.11,81.34,3.42,8.44-.64,18.05-9.08,21.47-2.03.82-4.13,1.21-6.19,1.21Z"/><path d="M752.84,236.17c-5.64,0-11.14-2.9-14.21-8.11-4.62-7.84-2.02-17.95,5.82-22.57l161.25-95.15c7.84-4.62,17.95-2.02,22.57,5.82,4.62,7.84,2.02,17.95-5.82,22.57l-161.25,95.15c-2.63,1.55-5.51,2.29-8.36,2.29Z"/><circle cx="651.01" cy="351.83" r="46.59"/><circle cx="803.71" cy="351.13" r="46.59"/><path d="M846.08,623.11h-109.75c-9.1,0-16.48-7.38-16.48-16.48s7.38-16.48,16.48-16.48h109.75c9.1,0,16.48,7.38,16.48,16.48s-7.38,16.48-16.48,16.48Z"/></svg>