<?xml version="1.0" encoding="UTF-8"?><svg id="Strategist_mouth" xmlns="http://www.w3.org/2000/svg" viewBox="0 0 2425.37 1072.88"><defs><style>.cls-1{fill:#94cdff;}.cls-2{fill:#93ccff;}</style></defs><path class="cls-1" d="M1326.22,770.9v-113.76h14.32v113.76h-14.32Z"/><path class="cls-1" d="M1383.18,770.9l41.84-113.76h16.07l42,113.76h-15.59l-12.09-34.68h-45.34l-12.25,34.68h-14.64ZM1427.73,686.42l-13.52,38.19h37.23l-13.05-38.19-5.09-16.07h-.32c-2.02,6.36-3.77,11.72-5.25,16.07Z"/><path class="cls-1" d="M1497.73,770.9v-113.76h18.3l36.91,94.5h.32l36.59-94.5h18.61v113.76h-13.68v-93.55h-.32c-2.02,5.95-3.71,10.72-5.09,14.32l-31.18,79.23h-10.98l-31.18-79.23-5.09-14.32h-.32v93.55h-12.89Z"/><path class="cls-1" d="M1690.4,770.9l-39.62-113.76h15.43l28,84.64,4.46,15.27h.32c1.8-6.79,3.29-11.88,4.46-15.27l27.68-84.64h14.96l-39.93,113.76h-15.75Z"/><path class="cls-1" d="M1761.04,770.9v-113.76h14.32v113.76h-14.32Z"/><path class="cls-1" d="M1840.75,773.13c-15.27,0-27.02-3.77-35.24-11.3-8.22-7.53-12.65-17.34-13.28-29.43h14c1.91,19.52,13.63,29.27,35.16,29.27,8.17,0,14.72-1.83,19.65-5.49,4.93-3.66,7.4-8.94,7.4-15.83,0-3.07-.58-5.78-1.75-8.11-1.17-2.33-2.57-4.24-4.21-5.73-1.65-1.48-4.11-2.86-7.4-4.14-3.29-1.27-6.34-2.28-9.15-3.02-2.81-.74-6.66-1.64-11.53-2.7-5.83-1.27-10.66-2.57-14.48-3.9-3.82-1.32-7.64-3.16-11.46-5.49-3.82-2.33-6.66-5.33-8.51-8.99-1.86-3.66-2.78-8.09-2.78-13.28,0-9.33,3.52-16.68,10.58-22.04,7.05-5.35,16.41-8.04,28.08-8.04,25.56,0,39.93,11.83,43.12,35.48h-13.52c-1.06-8.06-4.09-14.13-9.07-18.22-4.99-4.08-11.72-6.13-20.21-6.13-7.85,0-14.08,1.59-18.69,4.77-4.61,3.18-6.92,7.69-6.92,13.52,0,2.54.5,4.8,1.51,6.76s2.33,3.6,3.98,4.93c1.64,1.33,3.82,2.52,6.52,3.58,2.7,1.06,5.38,1.94,8.04,2.63,2.65.69,5.89,1.41,9.7,2.15,5.3,1.06,9.65,2.04,13.05,2.94,3.39.9,7.16,2.25,11.29,4.06,4.14,1.8,7.34,3.87,9.63,6.2,2.28,2.34,4.24,5.38,5.89,9.15,1.64,3.77,2.46,8.14,2.46,13.13,0,10.39-3.84,18.53-11.53,24.42-7.69,5.89-17.79,8.83-30.31,8.83Z"/><path class="cls-1" d="M1944.64,772.65c-13.26,0-23.84-3.12-31.74-9.39-7.9-6.25-11.85-15.96-11.85-29.11v-77.01h14.32v75.57c0,18.46,9.92,27.69,29.75,27.69s28.8-9.23,28.8-27.69v-75.57h14.32v77.01c0,13.04-4,22.72-12.01,29.03-8.01,6.31-18.54,9.47-31.58,9.47Z"/><path class="cls-1" d="M1998.58,770.9l41.84-113.76h16.07l42,113.76h-15.59l-12.09-34.68h-45.34l-12.25,34.68h-14.64ZM2043.13,686.42l-13.52,38.19h37.23l-13.05-38.19-5.09-16.07h-.32c-2.02,6.36-3.77,11.72-5.25,16.07Z"/><path class="cls-1" d="M2113.13,770.9v-113.76h14.32v100.55h59.66v13.21h-73.98Z"/><path class="cls-1" d="M1325.91,926.88v-113.76h41.37c16.65,0,29.22,5.15,37.71,15.43,8.48,10.29,12.73,24.24,12.73,41.85s-4.4,31.29-13.21,41.36c-8.8,10.08-21.59,15.12-38.34,15.12h-40.25ZM1340.22,914.31h25.46c24.93,0,37.39-14.64,37.39-43.91s-12.09-44.87-36.28-44.87h-26.57v88.78Z"/><path class="cls-1" d="M1437.44,926.88v-113.76h14.32v113.76h-14.32Z"/><path class="cls-1" d="M1475.78,926.88v-113.76h53.14c9.97,0,18.06,2.86,24.26,8.59,6.21,5.73,9.31,13.26,9.31,22.59,0,14.53-6.58,23.92-19.73,28.16v.48c5.62,2.02,9.62,5.17,12.01,9.47s3.84,10.79,4.38,19.49c1.06,14.54,2.81,22.65,5.25,24.34v.64h-15.43c-1.17-.96-1.99-2.97-2.46-6.05-.48-3.07-1.03-9.55-1.67-19.41-.53-8.27-2.57-14.11-6.13-17.5-3.56-3.39-9.2-5.09-16.94-5.09h-31.66v48.05h-14.32ZM1490.1,825.53v41.69h33.73c7.85,0,13.79-1.83,17.82-5.49,4.03-3.66,6.05-8.77,6.05-15.35,0-7.1-1.8-12.36-5.41-15.75-3.61-3.39-9.49-5.09-17.66-5.09h-34.53Z"/><path class="cls-1" d="M1582.22,926.88v-113.76h80.35v12.57h-66.03v35.96h59.98v12.09h-59.98v39.94h67.94v13.21h-82.26Z"/><path class="cls-1" d="M1730.18,929.11c-16.02,0-28.9-5.52-38.66-16.55-9.76-11.03-14.64-25.24-14.64-42.64s4.85-31.37,14.56-42.56c9.71-11.19,22.83-16.79,39.38-16.79,12.94,0,23.39,3.34,31.34,10.03s12.73,15.43,14.32,26.25h-14c-1.38-7.21-4.85-12.99-10.42-17.34-5.57-4.35-12.76-6.52-21.56-6.52-12.2,0-21.75,4.38-28.64,13.13-6.9,8.75-10.34,20.02-10.34,33.81s3.58,25.27,10.74,33.81,16.63,12.81,28.4,12.81c10.18,0,18.06-2.97,23.63-8.91,5.57-5.94,8.72-13.41,9.46-22.43h14.16c-.11,5.62-1.41,11.38-3.9,17.26-2.49,5.89-5.76,10.8-9.79,14.72-8.17,7.96-19.52,11.94-34.05,11.94Z"/><path class="cls-1" d="M1785.23,825.69v-12.57h90.05v12.57h-37.87v101.19h-14.32v-101.19h-37.87Z"/><path class="cls-1" d="M1976.55,912.56c-10.13,11.14-23.63,16.7-40.49,16.7s-30.37-5.57-40.49-16.7c-10.13-11.14-15.19-25.35-15.19-42.64s5.06-31.5,15.19-42.64c10.13-11.14,23.63-16.71,40.49-16.71s30.36,5.57,40.49,16.71c10.13,11.13,15.2,25.35,15.2,42.64s-5.07,31.5-15.2,42.64ZM1905.83,903.66c7.21,8.7,17.29,13.04,30.23,13.04s23.01-4.35,30.23-13.04c7.21-8.7,10.82-19.94,10.82-33.73s-3.61-25.06-10.82-33.81c-7.21-8.75-17.29-13.13-30.23-13.13s-23.02,4.38-30.23,13.13c-7.21,8.75-10.82,20.02-10.82,33.81s3.6,25.04,10.82,33.73Z"/><path class="cls-1" d="M2011.15,926.88v-113.76h53.14c9.97,0,18.06,2.86,24.26,8.59s9.31,13.26,9.31,22.59c0,14.53-6.58,23.92-19.73,28.16v.48c5.62,2.02,9.62,5.17,12.01,9.47s3.84,10.79,4.38,19.49c1.06,14.54,2.81,22.65,5.25,24.34v.64h-15.43c-1.17-.96-1.99-2.97-2.46-6.05-.48-3.07-1.03-9.55-1.67-19.41-.53-8.27-2.57-14.11-6.13-17.5-3.56-3.39-9.2-5.09-16.94-5.09h-31.66v48.05h-14.32ZM2025.47,825.53v41.69h33.73c7.85,0,13.79-1.83,17.82-5.49,4.03-3.66,6.05-8.77,6.05-15.35,0-7.1-1.8-12.36-5.41-15.75-3.61-3.39-9.49-5.09-17.66-5.09h-34.53Z"/><rect class="cls-1" x="223.15" y="915.19" width="1018.86" height="7.09"/><rect class="cls-1" x="140.75" y="875.43" width="363.07" height="7.09"/><ellipse class="cls-1" cx="1234.22" cy="916.03" rx="16.54" ry="17.97"/><ellipse class="cls-1" cx="149.18" cy="878.12" rx="16.54" ry="17.97"/><polygon class="cls-2" points="613.98 314.57 1210.58 314.57 812.85 617.39 613.98 920.22 1011.71 920.22 613.98 314.57"/><path d="M882.25,646.82c-14.4,0-28.82-2.11-42.63-6.33l-.23-.07c-.08-.02-.15-.05-.23-.07-18.35-6.12-49.06-16.37-60.85-41.36-.06-.13-.12-.26-.18-.4-6.11-14.79-3.91-30.93,5.73-42.1,9.57-11.1,24.5-15.45,39.94-11.64,6.97,1.52,13.46,4.11,19.75,6.62,3.27,1.3,6.36,2.53,9.45,3.59.05.02.1.03.15.05,11.59,4.21,24.38,6.14,39.11,5.93.1,0,.2,0,.3,0,3.71.07,7.61-.16,11.74-.41,11.11-.67,23.7-1.42,35.33,4.21.05.02.1.05.15.07,8.99,4.57,15.38,12.94,18,23.58,2.88,11.73.65,24.3-5.98,33.65-5.22,7.56-13.11,13.34-23.45,17.19-.09.03-.18.07-.28.1-14.7,4.92-30.24,7.39-45.82,7.39ZM844.59,623.72l.13.04c25.27,7.73,52.83,7.42,77.65-.87,6.87-2.58,11.93-6.19,15.06-10.73.03-.04.05-.07.08-.11,3.69-5.19,4.95-12.61,3.28-19.39-.8-3.24-3.01-9.11-8.87-12.13-7.51-3.6-16.77-3.05-26.58-2.46-4.23.25-8.61.51-12.97.44-16.79.25-31.56-2.03-45.13-6.95-3.46-1.19-6.87-2.55-10.16-3.86-5.92-2.36-11.52-4.59-17.12-5.8-.09-.02-.17-.04-.26-.06-9.09-2.26-17.32-.05-22.6,6.07-5.35,6.2-6.42,15.08-2.89,23.81,8,16.66,29.25,24.95,50.37,32Z"/><path d="M859.85,369.65c-3.08,0-6.07-1.63-7.66-4.52-9.21-16.69-25.32-25.33-47.87-25.68-18.01-.27-33.48,5-33.64,5.06-4.56,1.58-9.54-.83-11.12-5.38-1.59-4.55.81-9.53,5.36-11.12.73-.26,18.12-6.27,39.14-6.04,29.14.3,51.08,12.31,63.45,34.72,2.33,4.23.8,9.55-3.43,11.88-1.34.74-2.79,1.09-4.22,1.09Z"/><path d="M917,382.39c-2.73,0-5.41-1.28-7.12-3.67-2.81-3.93-1.88-9.4,2.05-12.21.39-.28,9.83-6.94,24.72-10.45,13.68-3.22,34.93-4.4,58.52,8.26,4.25,2.28,5.85,7.58,3.57,11.84-2.28,4.25-7.58,5.85-11.84,3.57-14.83-7.96-30.16-10.25-45.56-6.8-11.75,2.63-19.21,7.78-19.28,7.84-1.54,1.1-3.31,1.63-5.06,1.63Z"/><circle cx="826.73" cy="437.66" r="28.72"/><circle cx="944.69" cy="441.18" r="28.72"/><rect class="cls-2" x="277.16" y="345.26" width="27.98" height="27.98" transform="translate(.45 -.37) rotate(.07)"/><rect class="cls-2" x="515.53" y="110.46" width="23.84" height="23.84" transform="translate(.16 -.67) rotate(.07)"/><path class="cls-2" d="M291.49,358.36h-4.73c.17-131.6,107.29-238.56,238.85-238.56h.3v4.73h-.3c-128.97,0-233.97,104.83-234.13,233.83Z"/><rect class="cls-2" x="523.56" y="-170.91" width="4.73" height="586.14" transform="translate(403.09 647.93) rotate(-89.93)"/><circle class="cls-2" cx="232.85" cy="122.01" r="9.1"/><circle class="cls-2" cx="822.06" cy="122.75" r="9.1"/><path class="cls-2" d="M408.39,676.91l132.57-109.88,1.92.03,28.17,33.99-.33,1.89-132.57,109.88-1.92-.03-28.17-33.99.33-1.89ZM541.1,575.58l-124.33,103.05,20.47,24.69,1.92.03,13.86-11.48-11.43-13.79c.21-3,3.83-4.5,5.94-6.55l12.23,14.75,14.61-12.11c2.17-1.8-6.35-6.77-5.36-9.69l5.57-4.56,6.91,8.34,15.73-13.04c-.19-.63-1.38-.15-1.55-.34l-10.63-12.83c.21-3,3.83-4.5,5.94-6.55l12.23,14.75,14.98-12.42-6.92-8.34,6.31-5.24,7.35,7.99,14.23-11.79-12.23-14.75c2.41-1.69,4.55-4.98,7.54-4.62l10.63,12.83c.16.2-.54,1.28.05,1.58l17.23-14.28-21.26-25.66Z"/><polygon class="cls-2" points="1214.44 581.45 1275.9 580.75 1277.56 581.9 1277.66 587.07 1208.12 587.77 1208.12 495.06 1214.44 496.82 1214.44 581.45"/><polygon class="cls-2" points="1291 507.7 1291 599.71 1285.38 599.71 1285.38 514.02 1221.47 514.02 1221.47 507.7 1291 507.7"/><polygon class="cls-2" points="1312.07 581.45 1312.07 587.77 1298.73 587.77 1298.16 582.59 1299.08 581.45 1312.07 581.45"/><path class="cls-2" d="M105,637.32l59.1,41.25-25.79,5,17.82,24.92-5.9,2.73-16.94-24.24c-.43-.21-1.63,1.87-1.94,2.42-2.7,4.81-7.24,17.82-10.11,21.03-.59.65-.64,1.21-1.83,1.13.79-1.6-.51-2.61-.68-3.51l-13.72-70.74Z"/></svg>