<?xml version="1.0" encoding="UTF-8"?><svg id="Strategist_mouth" xmlns="http://www.w3.org/2000/svg" viewBox="0 0 1080 1080"><defs><style>.cls-1{fill:none;stroke:#000;stroke-linecap:round;stroke-linejoin:round;stroke-width:30px;}.cls-2{fill:#93ccff;}</style></defs><polygon class="cls-2" points="28.04 26.63 1051.68 26.63 369.26 546.21 28.04 1065.78 710.47 1065.78 28.04 26.63"/><path class="cls-1" d="M419.17,571.36c-35.03-11.69-78.84-27.65-95.59-63.14-17.6-42.64,15.56-83.23,61.09-71.88,16.66,3.61,32.51,11.56,48.62,17.09,23.29,8.47,47.71,11.45,72.45,11.07,24.6.47,51.58-6.08,74.5,5.03,26.7,13.57,31.94,52.59,15.13,76.21-7.94,11.52-20.1,19.17-33.18,24.05-45.74,15.33-96.47,15.81-142.6,1.7l-.42-.13Z"/><path class="cls-1" d="M291.97,63.83s112.8-39.48,157.92,42.3"/><path class="cls-1" d="M547.98,127.96s56.67-40.49,127-2.74"/><circle cx="393.07" cy="237.82" r="49.28"/><circle cx="595.47" cy="243.86" r="49.28"/></svg>